<svg xmlns="http://www.w3.org/2000/svg" width="600" height="574.335" viewBox="-56444 -56444 600 574.335" fill-rule="evenodd"><defs><clipPath id="a"><path d="M6729620 1184790c66510-76010 101350-126680 148860-212190 69670-133020 240700-41180 380050-50680-22170-6330-41170 6340-41170 22170 0 91850-50680 202700-158360 218530-98180 12670-190030-22170-285040-15830-15830 0-28500 22170-44340 38000z"/></clipPath></defs><path fill="#f8c300" stroke="#1f1a17" stroke-width="2.667" d="M-56234.958-55955.497l93.02 31.255 100.54-28.384 59.589-54.544-102.435-92.66-121.983-.965-97.936 92.04z"/><g stroke="#000" stroke-width="2.667"><path d="M-56228.447-56139.962s-4.074 0-9.053 4.074c-4.979 4.074-6.337 10.411-6.337 10.411s5.885 1.358 11.77-.452c5.884-1.811 8.6-4.527 8.6-4.527z"/><path d="M-56223.043-56129.153s-4.073 0-9.052 4.074c-4.98 4.073-6.337 10.41-6.337 10.41s5.884 1.359 11.768-.452c5.885-1.81 8.6-4.527 8.6-4.527z"/><path d="M-56217.638-56117.865s-4.074 0-9.053 4.074c-4.98 4.074-6.337 10.411-6.337 10.411s5.884 1.358 11.769-.452c5.884-1.81 8.6-4.527 8.6-4.527zm5.857 11.797s-4.074 0-9.053 4.074c-4.98 4.074-6.337 10.41-6.337 10.41s5.884 1.359 11.768-.452c5.885-1.81 8.601-4.526 8.601-4.526zm6.762 11.7s-4.074 0-9.053 4.074c-4.98 4.074-6.337 10.41-6.337 10.41s5.884 1.359 11.769-.452c5.884-1.81 8.6-4.526 8.6-4.526z"/></g><g stroke="#000" stroke-width="2.667"><path d="M-56060.134-56139.962s4.074 0 9.053 4.074c4.98 4.074 6.337 10.411 6.337 10.411s-5.884 1.358-11.769-.452c-5.884-1.811-8.6-4.527-8.6-4.527z"/><path d="M-56065.538-56129.153s4.074 0 9.053 4.074c4.979 4.073 6.337 10.41 6.337 10.41s-5.885 1.359-11.769-.452c-5.884-1.81-8.6-4.527-8.6-4.527z"/><path d="M-56070.943-56117.865s4.074 0 9.053 4.074c4.98 4.074 6.337 10.411 6.337 10.411s-5.884 1.358-11.768-.452c-5.885-1.81-8.6-4.527-8.6-4.527zm-5.857 11.797s4.074 0 9.053 4.074c4.98 4.074 6.338 10.41 6.338 10.41s-5.885 1.359-11.769-.452c-5.885-1.81-8.6-4.526-8.6-4.526zm-6.762 11.7s4.074 0 9.053 4.074c4.98 4.074 6.337 10.41 6.337 10.41s-5.884 1.359-11.769-.452c-5.884-1.81-8.6-4.526-8.6-4.526z"/></g><path d="M-56144.076-56040.228l-3.65-2.58s-2.13 35.28-14.295 54.9c-6.692 10.64-12.167 22.2-13.232 24.33-1.064 1.98-6.843 9.13 6.388 10.04 8.973.46 24.333.46 24.333.46s15.208 0 24.18-.46c13.233-.91 7.454-8.06 6.389-10.04-1.065-2.13-6.54-13.69-13.231-24.33-12.167-19.62-14.296-54.9-14.296-54.9z" fill="#999" stroke="#1f1a17" stroke-width=".854"/><path d="M-56068.946-56274.888s-11.102-17.49 0-34.98c0 0-8.213-18.4-6.084-30.11 1.977-11.56 16.12-56.43 67.829-54.45 51.86 1.98 88.36 38.93 97.485 44.71 9.125 5.93 19.163 14.6 25.246 3.05 0 0 4.106 9.73-.912 15.51-5.171 5.62-11.255 9.58-20.38 5.62 0 0 21.292 31.18 23.42 40.91 1.978 9.74 3.043 9.74 11.103 6.85 0 0-1.064 8.82-6.083 9.73-5.02 1.07-12.167 4.87-17.186-2.89 0 0 9.126 21.45 6.084 34.07-4.107 16.58.912 32.09 5.019 35.13 0 0-16.273 3.8-24.334-6.84 0 0 1.065 52.62 15.208 69.04 0 0-16.272 6.85-23.268-3.8 0 0 12.167 73.91 69.958 181.13 0 0-19.314 6.69-34.523-23.42 0 0-17.185 5.78-30.416-23.42 0 0-32.394 1.06-42.583-49.58 0 0-21.292 4.87-30.417-27.22 0 0-21.292 0-27.375-30.27 0 0-18.313 6.93-27.375-27.22-5.823-21.95-9.431-36.39-12.473-75.33-8.001 22.6-14.565 3.66-16.004-1.88-5.64-21.74-1.94-54.34-1.94-54.34z" fill="#999" stroke="#f8c300" stroke-width="2.561"/><g fill="#999" stroke="#1f1a17" stroke-width=".889"><path d="M-56077.714-56075.153c10.665 16.256 30.791 40.971 61.996 56.526 6.236 3.194 8.973 4.258 4.715 8.06-4.258 3.65-8.517 8.365-16.425 5.171-6.665-2.691-43.36-25.91-59.74-58.452a212.295 212.295 0 0 0 9.454-11.305z"/><path d="M-56090.423-56060.3c9.14 16.547 26.509 41.445 54.934 58.707 5.932 3.497 8.365 4.714 3.955 8.06-4.41 3.193-8.82 7.452-16.273 3.802-6.098-3.176-39.247-28.107-52.751-60.43a225.34 225.34 0 0 0 10.135-10.138z"/><path d="M-56105.676-56045.498c8.544 16.947 24.764 42.12 51.938 60.33 5.779 3.801 8.212 5.17 3.65 8.212-4.563 3.041-9.126 7.147-16.425 3.041-5.963-3.299-37.856-29.677-50.03-62.526a242.143 242.143 0 0 0 10.867-9.057zm-16.051 13.016c6.293 14.112 18.378 34.893 41.222 58.72 4.715 5.018 7.604 5.779 2.89 8.516-4.715 2.738-13.84 6.844-20.684 2.433-5.66-3.691-26.555-32.379-34.726-61.726a260.656 260.656 0 0 0 11.298-7.943zm-89.073-43.257c-10.631 16.255-30.745 41.06-61.938 56.656-6.387 3.194-8.973 4.258-4.714 7.908 4.106 3.65 8.364 8.517 16.273 5.323 6.667-2.692 43.277-26.033 59.706-58.629a211.467 211.467 0 0 1-9.328-11.258z"/><path d="M-56198.211-56060.894c-9.166 16.577-26.56 41.515-54.908 58.692-5.78 3.65-8.213 4.867-3.954 8.06 4.41 3.194 8.82 7.452 16.272 3.802 6.221-3.046 39.145-28.035 52.686-60.362a224.26 224.26 0 0 1-10.096-10.192z"/><path d="M-56183.042-56046.044c-8.502 16.977-24.664 42.158-51.827 60.267-5.627 3.802-8.06 5.17-3.65 8.212 4.562 3.042 9.277 7.149 16.425 3.194 6.082-3.421 37.816-29.758 49.905-62.551a241.147 241.147 0 0 1-10.853-9.122zm16.018 13.1c-6.269 14.127-18.306 34.891-41.079 58.725-4.562 4.867-7.604 5.627-2.89 8.365 4.563 2.737 13.688 6.996 20.684 2.433 5.53-3.563 26.45-32.154 34.679-61.455a258.871 258.871 0 0 1-11.394-8.068z"/></g><path d="M-56213.577-56236.408l-14.904-31.64c13.23-4.26 8.516-23.27 8.516-23.27 8.517-4.26 25.246-37.87 25.246-37.87l-10.646-2.13c8.517-4.25 19.01-21.13 19.01-21.13l-12.622-2.13c6.387-1.98 16.88-25.25 16.88-25.25h-12.622c12.623-4.26 28.287-38.93 46.385-52.77 23.269-18.1 52.773-6.39 52.773-6.39s21.139-2.13 23.269 10.49c0 0-23.27 2.13-27.375 12.78 0 0 17.337-14.9 26.918-3.8 0 0-14.295-.46-16.425 10.03 0 0 2.13 8.52-6.387 29.66 0 0 8.517 12.62 8.517 23.27 0 10.49-4.26 44.1 12.622 46.23l8.517 14.75s-6.387 23.27 8.365 29.66l-14.752 29.51z" fill="#999" stroke="#f8c300" stroke-width="2.561"/><path d="M-56169.473-56393.668c4.258-3.14 8.516-6.28 12.775-9.43-5.273 7.4-10.545 14.8-15.817 22.21l23.117-14.76-5.171 14.76c5.627-6.34 11.254-12.68 16.88-19.01m32.699 7.3s-3.194 7.45-1.065 12.77m-15.816-12.77s3.193 10.64 2.129 13.84c0 0 5.17-13.84 8.364-15.82m-26.31 1.98s-1.065 6.38-1.065 10.64c0 0 8.365-8.51 11.559-11.71m-54.902 34.98s4.493-4.23 5.323-8.52l6.235 14.76s13.082-9.69 14.904-15.82c.719 6.22 3.042 10.64 6.236 12.62 3.193-4.92 6.387-9.83 9.58-14.75 0 0 7.27 9.12 10.494 13.84 0 0 6.7-7.64 9.582-12.78l6.235 14.76c2.839-5.28 5.677-10.55 8.517-15.82 0 0 1.064 9.58 5.323 12.77m-91.858 23.12c1.724-2.43 3.447-4.87 5.17-7.3 0 0 1.065 12.62 3.194 15.67 0 0 11.558-9.43 12.623-16.73 0 0 9.58 9.43 11.71 12.62 0 0 8.314-6.08 9.43-15.82 2.18 5.05 5.322 16.88 6.387 19.93 0 0 9.869-9.29 10.494-18.86 3.328 5.74 6.387 16.88 10.646 18.86 0 0 8.427-8.78 9.429-19.93 3.619 8.65 4.585 13.44 8.516 16.88l6.388-17.94s0 8.52 4.106 12.62m-104.481 22.05s1.065 7.46 5.323 12.78c0 0 11.558-12.78 12.623-17.03 0 0 6.387 14.9 9.429 19.01 6.92-8.57 8.11-11.59 11.71-17.95 0 0 3.194 11.71 6.236 15.97 0 0 6.106-10.4 7.452-18.1 2.18 5.85 5.323 15.97 10.646 19.01l12.623-19.92s5.323 12.62 8.364 15.81c0 0 4.073-6.17 8.517-16.88 1.836 4.02 5.323 11.56 7.452 14.76 0 0 6.235-10.65 5.17-14.76" fill="none" stroke="#f8c300" stroke-width="1.708"/><path d="M-56132.973-56412.068c3.193-3.65 4.866-6.08 7.148-10.19 3.345-6.39 11.558-1.98 18.249-2.43-1.064-.31-1.977.3-1.977 1.06 0 4.41-2.433 9.73-7.604 10.49-4.714.61-9.125-1.06-13.687-.76-.76 0-1.37 1.07-2.13 1.83z" fill="#999"/><g clip-path="url(#a)" transform="translate(-56469.937 -56471.12) scale(.00005)" fill="#fff" stroke="#f8c300"><path d="M7081170 1096110c60180 0 107680-50670 107680-110840 0-60180-47500-107690-107680-107690-60170 0-107680 47510-107680 107690 0 60170 47510 110840 107680 110840z"/></g><path d="M-56132.973-56412.068c3.193-3.65 4.866-6.08 7.148-10.19 3.345-6.39 11.558-1.98 18.249-2.43-1.064-.31-1.977.3-1.977 1.06 0 4.41-2.433 9.73-7.604 10.49-4.714.61-9.125-1.06-13.687-.76-.76 0-1.37 1.07-2.13 1.83z" fill="none" stroke="#f8c300" stroke-width="1.708"/><path d="M-56100.276-56412.068c.438-2.515.156-1.123.609-3.65 0 0 17.337-14.9 26.918-3.8 0 0-12.813-.41-15.984 8.45-4.166-.94-8.241-1.68-11.543-1zm.609-3.65c-4.715-5.17-3.955-18.25 1.064-23.88l.285-.31c1.76.53 2.757.92 2.757.92s21.139-2.13 23.269 10.49c0 0-23.27 2.13-27.375 12.78z" fill="#999" stroke="#f8c300" stroke-width="1.708"/><path d="M-56219.052-56274.888s11.102-17.49 0-34.98c0 0 8.212-18.4 6.083-30.11-1.977-11.56-16.121-56.43-67.83-54.45-51.86 1.98-88.36 38.93-97.484 44.71-9.125 5.93-19.163 14.6-25.246 3.05 0 0-4.106 9.73.913 15.51 5.17 5.62 11.254 9.58 20.379 5.62 0 0-21.292 31.18-23.421 40.91-1.977 9.74-3.041 9.74-11.102 6.85 0 0 1.065 8.82 6.083 9.73 5.019 1.07 12.167 4.87 17.186-2.89 0 0-9.125 21.45-6.084 34.07 4.107 16.58-.912 32.09-5.018 35.13 0 0 16.272 3.8 24.333-6.84 0 0-1.065 52.62-15.208 69.04 0 0 16.273 6.85 23.268-3.8 0 0-12.167 73.91-69.958 181.13 0 0 19.314 6.69 34.523-23.42 0 0 17.185 5.78 30.417-23.42 0 0 32.393 1.06 42.583-49.58 0 0 21.29 4.87 30.416-27.22 0 0 21.292 0 27.375-30.27 0 0 18.313 6.93 27.375-27.22 5.823-21.95 9.432-36.39 12.473-75.33 8 22.6 14.565 3.66 16.005-1.88 5.638-21.74 1.939-54.34 1.939-54.34z" fill="#999" stroke="#f8c300" stroke-width="2.561"/><g stroke="#f8c300" fill="none" stroke-width="2.667"><path d="M-56382.238-56325.53c5.02-5.627 48.667-50.34 98.398-50.34m-2.129 16.425s-41.367 3.65-69.958 33.002c-25.398 26.31-37.564 55.51-37.564 55.51"/><path d="M-56287.946-56343.78s-29.656 6.691-51.708 24.181c-12.167 9.733-32.546 34.067-35.588 52.62-3.041 18.403-5.018 48.667-5.018 58.4"/><path d="M-56289.923-56325.53c-5.171 1.977-23.877 6.235-41.671 20.531-12.166 9.733-26.31 29.2-28.44 63.267-1.976 34.066 1.065 61.29-12.166 98.397"/><path d="M-56283.84-56311.842c-8.212 3.953-53.837 14.6-58.856 74.064-5.17 59.312-6.083 99.31-22.356 143.11-12.167 32.697-42.583 109.043-42.583 109.043"/><path d="M-56377.219-56009.046s30.265-66.004 40.606-107.979c12.167-49.73 12.623-100.374 13.232-113.91.912-27.375 1.977-45.777 38.477-59.464"/><path d="M-56280.798-56273.822c-6.083.913-24.03 6.843-23.42 48.666 1.064 69.198-27.224 158.775-30.418 166.531m62.963-196.795c-4.106 1.065-13.84-2.89-13.231 31.177 1.064 54.598-13.232 114.975-19.315 138.395m45.625-145.087s0 54.446-18.25 114.823"/></g><path d="M-56204.91-56250.558s-10.036-34.07-28.286-37.87c0 0 3.042-16.57-11.102-25.4 0 0 13.079-17.33 10.037-31.02-3.041-13.54-8.82-33.76-35.435-38.93-8.915-1.73-8.758-4.31-8.06-10.44-.731-.18-.477-.25-3.042-.21-1.096 8.94-2.13 21.44-4.106 28.29-1.977 6.69-9.125 47.45 1.064 54.29 0 0-4.106 26.31.913 35.13 5.17 8.67 10.189 23.27 18.25 25.25 0 0 2.129 35.13 36.5 35.13l.608-5.48z" fill="#999" stroke="#f8c300" stroke-width="2.561"/><g stroke="#f8c300" fill="none" stroke-width="2.667"><path d="M-55905.762-56325.53c-5.019-5.627-48.666-50.34-98.397-50.34m2.129 16.425s41.367 3.65 69.958 33.002c25.398 26.31 37.564 55.51 37.564 55.51"/><path d="M-56000.053-56343.78s29.656 6.691 51.708 24.181c12.167 9.733 32.546 34.067 35.588 52.62 3.041 18.403 5.018 48.667 5.018 58.4"/><path d="M-55998.076-56325.53c5.17 1.977 23.877 6.235 41.67 20.531 12.167 9.733 26.311 29.2 28.44 63.267 1.977 34.066-1.064 61.29 12.167 98.397"/><path d="M-56004.16-56311.842c8.213 3.953 53.838 14.6 58.856 74.064 5.172 59.312 6.084 99.31 22.357 143.11 12.166 32.697 42.583 109.043 42.583 109.043"/><path d="M-55910.78-56009.046s-30.264-66.004-40.606-107.979c-12.166-49.73-12.623-100.374-13.23-113.91-.913-27.375-1.978-45.777-38.478-59.464"/><path d="M-56007.2-56273.822c6.082.913 24.028 6.843 23.42 48.666-1.065 69.198 27.223 158.775 30.416 166.531m-62.962-196.795c4.106 1.065 13.84-2.89 13.231 31.177-1.064 54.598 13.231 114.975 19.315 138.395m-45.625-145.087s0 54.446 18.25 114.823"/></g><path d="M-56332.05-55939.548c1.52 0 2.738-1.22 2.738-2.89a2.73 2.73 0 0 0-2.738-2.74 2.728 2.728 0 0 0-2.737 2.74c0 1.67 1.216 2.89 2.737 2.89z" fill="#1f1a17" stroke="#1f1a17" stroke-width=".366"/><path d="M-56143.011-55870.958c102.504-1.06 172.158-64.48 172.158-64.48 1.065 4.26 22.204 20.07 22.204 20.07s2.129 8.97 13.688 4.26c15.512-6.24 21.139-33.76 21.139-33.76 0 3.19 25.398 13.69 25.398 13.69-1.065-9.43-1.065-15.82 0-26.32 1.065-10.64 1.977-9.58-20.075-32.85-22.204-23.26-25.398-1.06-27.527-4.25 0 0-2.13-3.05-9.43-9.43-7.451-6.39-28.591-26.47-43.343-10.5-65.852 70.42-136.266 72.85-154.212 72.85-17.946 0-88.208-2.43-154.06-72.85-14.752-15.97-35.891 4.11-43.344 10.5-7.3 6.38-9.43 9.43-9.43 9.43-2.128 3.19-5.322-19.01-27.526 4.25-22.204 23.27-21.14 22.21-20.075 32.85 1.065 10.5 1.065 16.89 0 26.32 0 0 25.398-10.5 25.398-13.69 0 0 5.475 27.98 21.14 33.76 10.037 3.65 13.687-4.26 13.687-4.26s21.14-15.81 22.204-20.07c0 0 69.654 65.54 172.006 64.48z" fill="#f8c300" stroke="#1f1a17" stroke-width="2.561"/><g fill="none" stroke="#1f1a17" stroke-width="2.667"><path d="M-56349.844-55994.598c-4.258 4.258-10.646 13.84-12.775 19.01-1.977 5.323-3.041 14.905 7.452 30.721 10.646 15.817 17.946 19.01 17.946 29.504m-59.16-51.707c5.323-2.13 19.01-4.258 24.333 22.204"/><path d="M-56363.531-55970.263c5.17-6.236 8.364-5.323 25.245 12.775 16.882 17.946 16.882 16.881 23.27 22.052"/></g><g fill="none" stroke="#1f1a17" stroke-width="2.667"><path d="M-55935.418-55993.533c4.106 4.258 10.037 12.166 12.014 17.49 2.13 5.322 3.194 14.751-7.3 30.568-10.646 15.969-17.946 19.01-17.946 29.656m59.162-51.707c-5.323-2.13-19.01-4.259-24.333 22.052"/><path d="M-55922.338-55970.72c-5.17-6.387-8.364-5.322-25.245 12.623-16.882 17.946-16.882 16.882-23.27 22.205"/></g><path d="M-56083.242-56250.558s10.037-34.07 28.287-37.87c0 0-3.042-16.57 11.102-25.4 0 0-13.08-17.33-10.037-31.02 3.04-13.54 8.82-33.76 35.435-38.93 8.915-1.73 8.758-4.31 8.059-10.44.732-.18.478-.25 3.043-.21 1.096 8.94 2.129 21.44 4.106 28.29 1.977 6.69 9.125 47.45-1.064 54.29 0 0 4.106 26.31-.913 35.13-5.171 8.67-10.19 23.27-18.25 25.25 0 0-2.13 35.13-36.5 35.13l-.608-5.48z" fill="#999" stroke="#f8c300" stroke-width="2.561"/><g fill="#999" stroke="#1f1a17" stroke-width="53340"><path d="M-56354.102-55960.683c-1.977-2.738-3.194-8.973 3.194-14.296 5.17-4.259 7.3-4.715 8.364-6.844 0 0 3.194 7.3.609 13.687-1.217 2.89-5.78 15.817-12.167 7.453z" stroke-width="2.667"/><path d="M-56345.585-55949.125c-2.282-2.433-2.89-7.604 1.825-12.47 5.018-4.868 12.166-3.499 13.535-5.476 1.369-1.977-.152 9.581-1.825 13.84 0 0-7.756 10.493-13.535 4.106zm11.102 10.645c-2.586-2.28-1.369-9.58 3.954-13.687 5.475-4.41 9.125-4.106 10.95-5.627 2.433-1.825 3.498 10.342-.76 14.904-4.41 4.715-10.494 7.452-14.144 4.41zM-55952.907-55939.545c5.019-3.498-2.737-12.015-2.89-12.167-5.627-4.41-12.774-3.802-14.296-5.475-1.52-1.825.761 10.19 3.499 14.296 0 0 6.843 8.06 13.687 3.346zm20.077-20.072c4.258-3.194 2.13-15.056-4.258-16.882-3.65-1.064-6.388-2.129-7.3-4.258-1.065-2.13.456 8.973.456 12.167 0 3.041 5.323 13.231 11.102 8.973zm-8.975 9.426c.304-.304 4.106-6.388-1.369-11.862-5.018-5.02-11.558-6.844-12.927-8.822-1.368-1.824-1.673 11.559-.304 14.449-3.346-6.996 4.563 16.272 14.6 6.235z" stroke-width="2.667"/></g><g fill="#f8c300" stroke="#1f1a17" stroke-width="35560"><path d="M-56249.013-56084.327s-24.942-13.991-14.296-21.14c9.582-6.235 15.36 11.103 14.296 21.14z" stroke-width="1.778"/><path d="M-56242.17-56071.552s-18.249-21.748-1.672-35.283c0 0 13.383 12.014 1.673 35.283z" stroke-width="1.778"/><path d="M-56242.17-56071.552s-4.561-21.9-29.2-18.706c0 0 7.91 22.812 29.2 18.706z" stroke-width="1.778"/><path d="M-56237.455-56058.929s-2.281-20.835-26.614-17.641c0 0 2.89 15.968 26.614 17.641z" stroke-width="1.778"/><path d="M-56235.782-56059.537s-17.185-20.075-.608-33.61c0 0 14.448 14.904.608 33.61z" stroke-width="1.778"/><path d="M-56230.459-56048.435s-2.89-18.706-27.223-15.513c0 0 5.78 19.771 27.223 15.513z" stroke-width="1.778"/><path d="M-56229.546-56046.762s-17.185-20.227-.609-33.763c0 0 13.384 12.015.609 33.763z" stroke-width="1.778"/><path d="M-56221.486-56035.204s-17.793-19.162-1.217-32.546c0 0 13.688 10.342 1.217 32.546z" stroke-width="1.778"/><path d="M-56221.486-56035.204s-4.41-19.162-28.744-15.968c0 0 7.3 20.226 28.744 15.968z" stroke-width="1.778"/><path d="M-56214.642-56023.037s-3.802-18.555-30.417-17.642c0 0 8.973 21.748 30.417 17.642z" stroke-width="1.778"/><path d="M-56213.121-56024.102s-17.338-10.494-2.738-33.154c0 0 10.494 9.885 2.738 33.154zm9.429 12.167s-6.083-17.186-30.265-13.992c0 0 5.02 17.185 30.265 13.992z" stroke-width="1.778"/><path d="M-56203.692-56011.935s-20.835-18.098-4.41-31.481c0 0 14.903 9.276 4.41 31.48z" stroke-width="1.778"/><path d="M-56189.549-56000.833s-12.622-16.882-36.195-12.47c0 0 16.729 17.336 36.195 12.47z" stroke-width="1.778"/><path d="M-56189.549-56000.833s-22.508-7.452-9.58-32.09c0 0 10.189 2.433 9.58 32.09z" stroke-width="1.778"/><path d="M-56179.967-55991.404s-10.798-17.794-33.154-11.558c0 0 12.623 18.706 33.154 11.558z" stroke-width="1.778"/><path d="M-56179.967-55991.404s-22.813-16.12-8.213-31.785c0 0 14.6 6.54 8.213 31.785z" stroke-width="1.778"/><path d="M-56167.344-55978.628s-25.246-16.577-12.015-33.459c0 0 16.273 6.996 12.015 33.459z" stroke-width="1.778"/><path d="M-56167.344-55978.628s-10.038-20.531-35.131-11.102c0 0 14.447 20.379 35.13 11.102z" stroke-width="1.778"/><path d="M-56152.592-55966.004s-25.246-14.752-13.688-32.698c0 0 14.752 6.236 13.688 32.698z" stroke-width=".889"/><path d="M-56154.57-55967.07s-12.774-19.01-34.979-8.517c0 0 15.97 19.01 34.98 8.517z" stroke-width="1.778"/><path d="M-56145.14-55957.49s-21.14-12.775-9.43-30.721c0 0 16.882 8.517 9.43 30.72z" stroke-width="1.778"/><path d="M-56145.14-55957.49s-8.365-17.034-30.569-6.388c0 0 11.558 16.882 30.569 6.388zM-56037.922-56084.327s24.942-13.991 14.296-21.14c-9.581-6.235-15.36 11.103-14.296 21.14z" stroke-width="1.778"/><path d="M-56044.765-56071.552s18.25-21.748 1.673-35.283c0 0-13.384 12.014-1.673 35.283z" stroke-width="1.778"/><path d="M-56044.765-56071.552s4.562-21.9 29.2-18.706c0 0-7.909 22.812-29.2 18.706z" stroke-width="1.778"/><path d="M-56049.48-56058.929s2.281-20.835 26.614-17.641c0 0-2.89 15.968-26.614 17.641z" stroke-width="1.778"/><path d="M-56051.153-56059.537s17.185-20.075.608-33.61c0 0-14.448 14.904-.608 33.61z" stroke-width="1.778"/><path d="M-56056.476-56048.435s2.89-18.706 27.223-15.513c0 0-5.78 19.771-27.223 15.513z" stroke-width="1.778"/><path d="M-56057.54-56046.762s17.337-20.227.76-33.763c0 0-13.383 12.015-.76 33.763z" stroke-width="1.778"/><path d="M-56065.449-56035.204s17.794-19.162 1.217-32.546c0 0-13.84 10.342-1.217 32.546z" stroke-width="1.778"/><path d="M-56065.449-56035.204s4.41-19.162 28.744-15.968c0 0-7.3 20.226-28.744 15.968z" stroke-width="1.778"/><path d="M-56072.293-56023.037s3.803-18.555 30.417-17.642c0 0-8.973 21.748-30.417 17.642z" stroke-width="1.778"/><path d="M-56073.813-56024.102s17.337-10.494 2.737-33.154c0 0-10.646 9.885-2.737 33.154zm-9.582 12.167s6.084-17.186 30.417-13.992c0 0-5.019 17.185-30.417 13.992z" stroke-width="1.778"/><path d="M-56083.395-56011.935s20.988-18.098 4.41-31.481c0 0-14.903 9.276-4.41 31.48z" stroke-width="1.778"/><path d="M-56097.538-56000.833s12.623-16.882 36.348-12.47c0 0-16.882 17.336-36.348 12.47z" stroke-width="1.778"/><path d="M-56097.538-56000.833s22.66-7.452 9.581-32.09c0 0-10.19 2.433-9.581 32.09z" stroke-width="1.778"/><path d="M-56107.12-55991.404s10.799-17.794 33.307-11.558c0 0-12.775 18.706-33.307 11.558z" stroke-width="1.778"/><path d="M-56107.12-55991.404s22.813-16.12 8.213-31.785c0 0-14.6 6.54-8.213 31.785z" stroke-width="1.778"/><path d="M-56119.742-55978.628s25.245-16.577 12.014-33.459c0 0-16.273 6.996-12.014 33.459z" stroke-width="1.778"/><path d="M-56119.742-55978.628s10.037-20.531 35.13-11.102c0 0-14.447 20.379-35.13 11.102z" stroke-width="1.778"/><path d="M-56134.494-55966.004s25.245-14.752 13.687-32.698c0 0-14.752 6.236-13.687 32.698z" stroke-width=".889"/><path d="M-56132.517-55967.07s12.775-19.01 34.979-8.517c0 0-15.97 19.01-34.98 8.517z" stroke-width="1.778"/><path d="M-56141.947-55957.49s21.14-12.775 9.43-30.721c0 0-16.882 8.517-9.43 30.72z" stroke-width="1.778"/><path d="M-56141.947-55957.49s8.365-17.034 30.57-6.388c0 0-11.56 16.882-30.57 6.388z" stroke-width="1.778"/></g><path fill="#f8c300" d="M-56146.205-56200.822l6.084 18.858h19.922l-16.12 11.71 6.235 18.858-16.12-11.71-15.97 11.71 6.084-18.858-16.121-11.71h19.923zm0 60.225l6.084 18.858h19.922l-16.12 11.71 6.235 18.858-16.12-11.71-15.97 11.71 6.084-18.858-16.121-11.71h19.923z"/><path d="M-56095.852-56288.348l44.76 59.1c12.408 80.65-21.418 151.44-92.986 197.01-71.48-45.6-105.227-116.41-92.828-197.01l44.6-59.1z" fill="#fff" stroke="#1f1a17" stroke-width="2.561"/><path d="M-56102.786-56272.748l38.613 50.75c10.514 69.32-18.361 129.89-79.905 169.11-61.455-39.25-90.253-99.85-79.748-169.11l38.456-50.75z" fill="#fff"/><path d="M-56210.563-56240.14l-11.843 18.63c-8.957 30.94.209 66.107 13.53 102.244l36.39 43.007v-191.99z"/><path d="M-56172.487-56268.248v198.35l29.073 17.708 27.837-17.709v-198.35z" fill="#fff"/><path d="M-56115.577-56268.248v189.604c65.114-65.053 52.245-78.66 51.85-142.381z" fill="#007a3d"/><path d="M-56208.925-56240.953l64.893 53.927 64.94-53.99-20.616-27.232h-91.232z" fill="#ce1126"/><path d="M-56102.786-56272.748l38.613 50.75c10.514 69.32-18.361 129.89-79.905 169.11-61.455-39.25-90.253-99.85-79.748-169.11l38.456-50.75z" fill="none" stroke="#ce1126" stroke-width="11.685"/><g style="line-height:125%" font-weight="400" font-size="1128888.875" font-family="Sans" letter-spacing="0" word-spacing="0"><path d="M-55977.55-55964.813l-23.297 13.91-2.096-3.509 16.44-9.816c-2.007-.243-3.657-.38-4.951-.41-1.612-.04-3.002.06-4.171.302a11.72 11.72 0 0 0-3.646 1.41c-.685.41-1.35.87-1.993 1.382-.204-1.228-.17-2.333.1-3.316.392-1.42 1.288-2.547 2.686-3.382 1.372-.82 3.394-1.115 6.066-.886 1.33.118 3.605.493 6.827 1.123 2.502.494 4.079.629 4.73.405l1.21-.723zm-7.653 10.507l.221 3.808-4.3.27-.184-3.885z"/><path d="M-55999.613-55951.526l-11.222 7.308-2.23-3.425 9.784-6.372c-1.009-1.549-1.962-2.61-2.86-3.185-.616-.402-1.763-.814-3.44-1.236l-.554-4.209c1.723.58 2.92 1.126 3.592 1.642 1.013.78 2.28 2.338 3.801 4.674zm2.466 4.002l.31 3.834-4.292.385-.357-3.777zm-3.374 4.72l.363 3.83-4.267.423-.402-3.804z"/><path d="M-56027.3-55963.81l.141 3.875-4.265.123-.204-3.84zm6.096 1.317l.099 3.846-4.307.147-.148-3.791zm-3.63 4.527l.151 3.843-4.283.187-.191-3.82zm15.876 13.039l-1.61.925c-.814.469-1.594.769-2.341.9-.747.131-1.58.136-2.499.014-.273.844-.583 1.483-.93 1.918-.497.611-1.357 1.268-2.579 1.971l-2.505 1.44c.719 1.25 1.12 2.637 1.201 4.162.109 1.979-.373 3.873-1.446 5.683-1.348 2.275-3.522 4.275-6.522 6.001-2.716 1.562-5.066 2.282-7.052 2.16-2.176-.14-3.885-1.29-5.127-3.448a17.565 17.565 0 0 1-1.61-3.79 29.103 29.103 0 0 1-.913-4.272c-.123-.905-.255-2.328-.397-4.27l1.026-.102c.174 2.501.432 4.403.775 5.706.343 1.302.784 2.422 1.322 3.359.969 1.683 2.306 2.617 4.01 2.802 1.706.184 3.672-.364 5.898-1.644 2.607-1.5 4.674-3.294 6.2-5.383 1.905-2.595 2.275-4.904 1.111-6.927a11.627 11.627 0 0 0-2.979-3.436c-.948-.737-2.036-1.34-3.263-1.809l-.71-5.147c1.318.723 2.346 1.442 3.082 2.157 1.035 1.013 2.153 2.565 3.356 4.655l2.505-1.44c1.29-.742 2.093-1.466 2.41-2.172.28-.613.216-1.273-.19-1.979a11.685 11.685 0 0 0-.756-1.15 19.52 19.52 0 0 0-.97-1.19l.112-1.69 1.462 1.787c1.064 1.159 2.015 1.886 2.853 2.18.932.332 1.907.205 2.925-.381.312-.18.497-.417.553-.711.056-.295-.001-.591-.173-.89-.39-.679-1.019-1.284-1.885-1.816-.64-.39-1.382-.722-2.226-.996l.088-3.004c1.239.678 2.036 1.168 2.39 1.47.791.684 1.655 1.84 2.592 3.47zm-50.112 20.244c.511 1.144.8 2.345.865 3.603.04.668-.018 1.783-.176 3.347l-.482-.042a44.797 44.797 0 0 0-.96-2.607c-.666-1.487-1.713-3.511-3.141-6.072a374.922 374.922 0 0 0-4.584-7.974 318.216 318.216 0 0 0-3.072-5.086 67.26 67.26 0 0 1 .064-2.473c.038-.893.078-1.734.12-2.524a479.505 479.505 0 0 1 3.86 6.302 241.256 241.256 0 0 1 4.251 7.287c1.524 2.716 2.609 4.795 3.255 6.24zm-4.6 8.628l-10.74 4.398-1.55-3.783 8.545-3.499-10.136-17.377-1.353-.081c-.41-1-.707-1.974-.892-2.922a14.23 14.23 0 0 1-.263-2.876l.424.106c.344.84 1.073 1.278 2.187 1.313.844-.007 1.694-.017 2.552-.03.297.725.556 1.524.779 2.398.222.874.337 1.546.343 2.017l-1.186.08 9.545 15.995z"/><path d="M-56080.73-55934.111l-.557 3.807-4.269-.59.5-3.76zm-4.347 3.843l-.505 3.813-4.253-.545.462-3.797zm12.437 17.914l-12.576 4.603-1.405-3.839 10.965-4.014c-.635-1.735-1.326-2.983-2.071-3.745-.511-.53-1.536-1.189-3.076-1.976l.405-4.226c1.549.95 2.593 1.753 3.132 2.406.812.987 1.697 2.79 2.655 5.408z"/><path d="M-56083.098-55908.217l-26.09 7.46-1.124-3.93 18.41-5.264c-1.876-.75-3.436-1.307-4.68-1.668-1.547-.454-2.916-.714-4.108-.78-1.34-.073-2.635.07-3.885.427-.768.22-1.529.494-2.282.823.119-1.24.435-2.299.949-3.179.744-1.272 1.899-2.131 3.465-2.58 1.536-.438 3.566-.204 6.09.703 1.254.456 3.357 1.402 6.31 2.839 2.29 1.12 3.78 1.656 4.466 1.606l1.355-.387z"/><path d="M-56106.88-55901.379c.292 1.698-.132 3.582-1.27 5.653-.99 1.822-2.329 3.474-4.013 4.955-1.6 1.418-2.98 2.227-4.137 2.426-1.065.182-2.242.225-3.53.128-.98-.07-2.17-.24-3.567-.508a780.026 780.026 0 0 1-3.526-.683l.235-.994c1.053.026 2.15.049 3.29.068 1.139.02 2.156-.048 3.052-.202 1.975-.339 3.928-1.325 5.856-2.959a17.994 17.994 0 0 0 4.226-5.242c1.071-2.003 1.485-3.714 1.241-5.135-.21-1.22-.784-2.44-1.724-3.66-.757-.983-1.75-1.957-2.98-2.922l.696-3.862c1.467.956 2.602 1.97 3.405 3.04.907 1.21 1.501 2.634 1.782 4.27zm-22.624 3.664l-13.345 1.105-.338-4.074 11.637-.964c-.153-1.842-.488-3.228-1.005-4.16-.352-.646-1.166-1.553-2.441-2.72l1.51-3.968c1.241 1.327 2.036 2.377 2.382 3.15.521 1.167.897 3.14 1.127 5.918zm.271 4.692l-1.547 3.523-3.96-1.7 1.48-3.493zm-5.21 2.553l-1.498 3.543-3.956-1.653 1.451-3.538z"/><path d="M-56140.545-55896.483c-.019 1.723-.775 3.5-2.268 5.332-1.302 1.614-2.915 2.998-4.839 4.152-1.829 1.107-3.33 1.654-4.505 1.641-1.081-.012-2.246-.181-3.495-.508-.953-.246-2.092-.627-3.418-1.143-1.123-.435-2.238-.87-3.345-1.306l.41-.935a419.7 419.7 0 0 0 3.223.659c1.117.223 2.13.34 3.038.35 2.005.023 4.103-.596 6.294-1.856a17.993 17.993 0 0 0 5.1-4.396c1.414-1.778 2.13-3.387 2.145-4.828.014-1.237-.332-2.54-1.037-3.911-.568-1.103-1.37-2.24-2.406-3.41l1.38-3.674c1.271 1.205 2.205 2.406 2.803 3.603.674 1.354 1.002 2.861.984 4.522zm-36.583-8.207a10.014 10.014 0 0 1-1.308 3.466c-.341.576-1.017 1.466-2.026 2.67l-.376-.305c.126-.439.26-.948.403-1.527.143-.579.232-.969.268-1.17.285-1.603.556-3.865.813-6.787.257-2.92.487-5.978.69-9.171.12-1.935.226-3.913.315-5.934.429-.623.91-1.293 1.443-2.01.533-.716 1.039-1.39 1.517-2.02a479.236 479.236 0 0 1-.347 7.383c-.165 3.12-.358 5.925-.578 8.416-.266 3.102-.537 5.432-.814 6.99zm-8.507 4.58l-11.3-2.642.93-3.98 8.99 2.102 1.816-20.036-1.056-.85c.246-1.052.569-2.018.967-2.898.4-.88.883-1.712 1.453-2.495l.284.332c-.207.884.134 1.663 1.021 2.338.692.483 1.39.968 2.097 1.455-.178.763-.43 1.564-.756 2.405-.325.84-.621 1.455-.89 1.843l-1.012-.623-1.495 18.566z"/><path d="M-56189.848-55926.75l-2.945 2.654-2.51-3.1 2.806-2.596zm-5.15 24.498l-13.692-4.07 1.165-3.919 7.724 2.297a24.9 24.9 0 0 0 2.406.605c.673.126 1.426.19 2.259.193-2.471-1.143-4.04-1.993-4.708-2.551-1.503-1.264-1.987-2.797-1.451-4.598.468-1.577 1.323-2.94 2.564-4.091 1.4-1.3 2.767-1.75 4.103-1.354 1.532.456 2.405 1.777 2.62 3.966.171 1.733-.056 3.651-.68 5.753zm.31-8.462c.011-1.303-.053-2.295-.195-2.974-.28-1.309-.856-2.093-1.727-2.352-.42-.125-.83-.067-1.228.174a1.756 1.756 0 0 0-.799 1.037c-.339 1.141.026 2.083 1.096 2.826.38.26 1.331.69 2.852 1.29z"/><path d="M-56206.733-55905.774l-10.919-3.931 1.385-3.847 8.687 3.128 4.12-19.69-.951-.967c.366-1.017.798-1.94 1.296-2.767a14.233 14.233 0 0 1 1.73-2.311l.245.362c-.308.855-.06 1.669.744 2.44.63.56 1.269 1.124 1.914 1.689a18.14 18.14 0 0 1-1.028 2.301c-.42.798-.786 1.374-1.097 1.728l-.933-.736-3.632 18.27z"/><path d="M-56215.727-55908.674l-1.647-.75c-.912-.415-1.64-.897-2.181-1.445a6.793 6.793 0 0 1-1.314-1.876c-.91.222-1.654.306-2.23.25-.844-.075-1.9-.401-3.17-.979l-1.389-.632a6.763 6.763 0 0 1-2.029-1.44c-.4-.407-.86-.986-1.377-1.738-.918.202-1.706.269-2.364.202-.658-.067-1.628-.393-2.91-.977l-4.127-1.88 1.693-3.72 4.127 1.88c1.155.525 2.027.802 2.617.83.976.048 1.688-.42 2.135-1.403a12.777 12.777 0 0 0 .899-2.766l1.46-.884c-.198 1.493-.305 2.598-.32 3.313-.018 1.248.124 2.26.425 3.034a3.566 3.566 0 0 0 1.914 2.033l1.433.652c1.069.487 1.934.683 2.597.589.739-.111 1.293-.573 1.663-1.385.201-.442.367-.883.499-1.322.13-.44.257-.924.378-1.454l1.482-.874-.466 2.214c-.336 1.757-.365 3.07-.088 3.935.238.762.77 1.332 1.597 1.708.385.176.748.2 1.09.071.343-.128.598-.377.767-.748.364-.798.454-1.772.272-2.922-.035-.188-.173-.81-.415-1.867l2.451-1.698c.182 1.15.234 2.094.156 2.833-.128 1.112-.558 2.474-1.292 4.084z"/><path d="M-56238.356-55918.942l-25.494-15.09 2.082-3.518 3.105 1.811a10.15 10.15 0 0 0 2.783 1.156c1.084.26 2.417.375 3.999.347.594-.45 1.166-.97 1.717-1.564a10.758 10.758 0 0 0 1.39-1.84c.853-1.442 1.66-3.112 2.42-5.01.547-1.387 1.125-3.055 1.734-5.007.31-1.017.67-2.27 1.077-3.757l-.882-1.369a22.984 22.984 0 0 1 1.803-2.1 13.703 13.703 0 0 1 2.05-1.734c-.16.76.042 1.544.602 2.349.466.658 1.163 1.325 2.091 2.002-.956 1.309-1.58 2.132-1.87 2.469-.291.338-.695.727-1.21 1.168-.087-.07-.296-.285-.629-.645l-.215-.237a52.594 52.594 0 0 1-1.715 5.55c-.682 1.845-1.358 3.333-2.028 4.465-.567.957-1.291 1.966-2.174 3.027-.315.378-.82.953-1.513 1.725 3.165.035 5.169.093 6.013.174 2.553.237 4.544.779 5.973 1.624 1.82 1.077 2.865 2.415 3.138 4.015.248 1.457-.159 3.082-1.22 4.874zm-.191-6.965c.407-.688.362-1.42-.134-2.195-.496-.776-1.405-1.555-2.726-2.337-.984-.582-2.243-1.037-3.78-1.363-1.258-.272-2.664-.45-4.217-.531a48.288 48.288 0 0 0-3.63-.047l8.794 5.205c3.181 1.883 5.079 2.306 5.693 1.268z"/><path d="M-56261.888-55933.203l-11.038-7.582 2.315-3.37 9.624 6.611c1.047-1.523 1.664-2.809 1.852-3.858.136-.723.08-1.94-.17-3.651l3.678-2.12c.123 1.814.074 3.13-.146 3.948-.334 1.233-1.29 2.999-2.87 5.297zm-2.757 3.806l-3.426 1.751-1.993-3.82 3.354-1.771zm-5.651-1.316l-3.4 1.797-2.02-3.782 3.361-1.823z"/><path d="M-56259.969-55958.314l-3.46 1.678-1.888-3.849 3.423-1.706zm-11.406 18.593l-10.769-7.96 2.43-3.287 9.39 6.94c1.099-1.486 1.76-2.75 1.985-3.791.16-.719.146-1.937-.045-3.656l3.75-1.99c.06 1.817-.034 3.13-.282 3.94-.377 1.22-1.394 2.953-3.051 5.194z"/><path d="M-56280.647-55946.315l-3.175-2.612c-1.863-1.532-3.303-2.635-4.32-3.31-1.017-.674-1.645-.866-1.884-.575-.328.399.07 1.061 1.195 1.986.496.408.88.744 1.15 1.007.27.263.85.852 1.74 1.766.522.55.846.97.974 1.257.202.47.119.93-.25 1.377-1.86 2.262-3.957 3.295-6.29 3.1-2.547-.209-5.689-1.85-9.426-4.924-2.601-2.14-4.306-4.282-5.116-6.429-.857-2.287-.57-4.3.863-6.043 1.154-1.403 2.765-2.572 4.833-3.508.745-.34 2.477-.954 5.195-1.841l.427.96c-1.106.408-2.202.815-3.286 1.22-1.784.764-3.024 1.57-3.72 2.416-1.224 1.488-1.38 3.256-.469 5.303.87 1.952 2.592 3.988 5.168 6.107 1.73 1.423 3.364 2.543 4.901 3.361 1.89 1.007 3.068 1.226 3.536.658a.647.647 0 0 0 .108-.687c-.097-.252-.357-.552-.78-.9a44.39 44.39 0 0 0-1.436-1.38 37.5 37.5 0 0 0-1.318-1.19c-.762-.626-1.224-1.174-1.387-1.642-.162-.468-.08-.902.25-1.301 1.233-1.5 2.684-2.365 4.353-2.594 1.363-.177 2.809.049 4.34.679a12.908 12.908 0 0 1 3.246 1.97l3.175 2.612zm-17.078 5.452l-2.97.173-.973-2.96 3.035-.362zm-3.756-3.089l-2.934.202-1.046-3.02 3.09-.317z"/></g></svg>